HIERARCHY
ROOT hip
{
	OFFSET 0.000000 0.000000 0.000000 
	CHANNELS 6 Xposition Yposition Zposition Xrotation Zrotation Yrotation
	JOINT abdomen
	{
		OFFSET 0.000000 3.402643 0.000000 
		CHANNELS 3 Xrotation Zrotation Yrotation
		JOINT chest
		{
			OFFSET 0.000000 8.438565 -0.680529 
			CHANNELS 3 Xrotation Zrotation Yrotation
			JOINT neck
			{
				OFFSET 0.000000 10.207942 -0.272212 
				CHANNELS 3 Xrotation Zrotation Yrotation
				JOINT head
				{
					OFFSET 0.000000 3.130431 0.000000 
					CHANNELS 3 Xrotation Zrotation Yrotation
					End Site
					{
						OFFSET 0.000000 3.130435 0.000000 
					}
				}
			}
			JOINT lCollar
			{
				OFFSET 3.470700 6.669187 -0.816635 
				CHANNELS 3 Yrotation Zrotation Xrotation
				JOINT lShldr
				{
					OFFSET 3.198488 0.000000 0.000000 
					CHANNELS 3 Zrotation Yrotation Xrotation
					JOINT lForeArm
					{
						OFFSET 10.139888 0.000000 0.000000 
						CHANNELS 3 Yrotation Zrotation Xrotation
						JOINT lHand
						{
							OFFSET 8.370511 0.000000 0.000000 
							CHANNELS 3 Zrotation Yrotation Xrotation
							End Site
							{
								OFFSET 4.083176 0.000000 0.000000 
							}
						}
					}
				}
			}
			JOINT rCollar
			{
				OFFSET -3.470700 6.669187 -0.816635 
				CHANNELS 3 Yrotation Zrotation Xrotation
				JOINT rShldr
				{
					OFFSET -3.198488 0.000000 0.000000 
					CHANNELS 3 Zrotation Yrotation Xrotation
					JOINT rForeArm
					{
						OFFSET -10.139888 0.000000 0.000000 
						CHANNELS 3 Yrotation Zrotation Xrotation
						JOINT rHand
						{
							OFFSET -8.370511 0.000000 0.000000 
							CHANNELS 3 Zrotation Yrotation Xrotation
							End Site
							{
								OFFSET -4.083176 0.000000 0.000000 
							}
						}
					}
				}
			}
		}
	}
	JOINT lThigh
	{
		OFFSET 5.308129 -1.633274 1.361059 
		CHANNELS 3 Xrotation Zrotation Yrotation
		JOINT lShin
		{
			OFFSET -2.041588 -20.007561 0.000000 
			CHANNELS 3 Xrotation Zrotation Yrotation
			JOINT lFoot
			{
				OFFSET 0.000000 -19.190928 -1.224953 
				CHANNELS 3 Xrotation Yrotation Zrotation
				End Site
				{
					OFFSET 0.000000 -2.449906 4.627600 
				}
			}
		}
	}
	JOINT rThigh
	{
		OFFSET -5.308129 -1.633274 1.361059 
		CHANNELS 3 Xrotation Zrotation Yrotation
		JOINT rShin
		{
			OFFSET 2.041588 -20.007561 0.000000 
			CHANNELS 3 Xrotation Zrotation Yrotation
			JOINT rFoot
			{
				OFFSET 0.000000 -19.190928 -1.224953 
				CHANNELS 3 Xrotation Yrotation Zrotation
				End Site
				{
					OFFSET 0.000000 -2.449906 4.627600 
				}
			}
		}
	}
}
MOTION
Frames: 6
Frame Time: 0.033333
-0.823831 49.739731 0.051329 0.653623 0.048823 -0.791015 0.000000 0.000000 0.000000 -2.462878 0.214835 -0.517574 6.022195 -0.468739 0.390612 5.752619 0.078122 0.488294 -1.258601 6.513321 -1.651736 -18.762947 -6.016275 -29.800177 -0.002185 -0.314470 25.371439 3.155859 -3.613218 -3.595698 0.648684 -4.629848 -1.645391 16.129543 -3.685735 -41.407753 -0.001225 0.009688 7.207031 -9.885122 6.838067 -4.244537 7.728413 10.014260 6.288737 -2.117932 -2.611918 3.409209 -4.703784 0.365245 -8.563562 2.303268 -10.835308 -4.919321 4.217071 2.976122 -9.972232 -4.690582 -0.342878 8.933108 
-0.948540 49.778343 -0.044423 0.694393 -0.087885 -0.673842 0.000000 0.000000 0.000000 -2.152752 0.312470 -0.791004 5.389002 -0.380856 0.244135 5.783091 -0.673782 0.673782 -2.395784 4.099584 -1.330504 -22.455858 -6.227719 -32.867821 -0.004776 0.398930 22.227020 5.518014 -6.029789 -3.819480 2.022861 -0.371318 -1.385822 19.852444 -6.487866 -45.006126 8.074726 0.045564 5.076339 -10.238036 6.038034 -4.221775 7.635619 10.478666 6.904232 -2.266129 -3.073513 3.064475 -4.389759 0.400977 -8.413371 2.674665 -10.426999 -4.654859 3.123514 2.877896 -10.454873 -4.059108 -0.301464 8.721946 
-1.076032 49.778080 -0.138138 0.830271 -0.009764 -1.132814 0.000000 0.000000 0.000000 -2.052479 0.166007 -0.585935 4.852484 -0.195310 0.302733 5.699107 -1.122962 0.703181 -4.123857 0.804375 -1.266381 -26.641397 -4.287451 -34.034473 -2.880744 0.081229 15.518716 3.290145 -5.418131 -3.591713 4.623215 3.545204 -1.463417 25.195366 -9.006273 -45.002972 14.891940 -0.496533 3.058490 -12.136158 4.278070 -4.211567 7.604702 10.622912 7.091855 -2.333878 -3.277186 3.115064 -4.360142 0.366080 -8.459156 1.795884 -10.376279 -4.443420 4.157725 2.807704 -10.165150 -4.472165 -0.344407 8.640653 
-1.216133 49.765739 -0.226655 0.997086 -0.039050 -1.455085 0.000000 0.000000 0.000000 -2.012331 0.156249 -0.224609 4.268484 0.166013 0.312527 5.254789 -1.132778 0.449131 -5.537370 -1.639869 -1.322548 -33.345787 -2.859294 -36.429390 -7.709049 0.804596 10.526039 -7.417245 -1.162393 -3.167317 6.818463 5.864573 -1.619445 29.802807 -8.425980 -45.004192 11.637156 -1.483970 0.239298 -17.137596 3.274127 -4.421377 7.428476 10.758464 7.075849 -2.363285 -3.160506 3.308535 -4.281507 0.423340 -8.708359 0.878233 -10.249574 -4.256187 5.228396 2.913788 -10.034681 -4.872408 -0.376941 8.435564 
-1.410447 49.744492 -0.277890 0.955141 -0.273324 -1.650419 0.000000 0.000000 0.000000 -1.875290 0.283203 -0.058593 3.765309 0.722635 0.439541 4.903535 -0.986291 0.497973 -6.404845 -2.504404 -1.272303 -41.817917 -2.457758 -36.835968 -11.420058 1.668051 8.859202 -15.851496 6.690773 -4.037086 8.815382 7.993163 -1.775180 33.295956 -6.304738 -43.285915 4.925321 -1.087036 -4.086605 -19.798004 -0.041878 -4.011333 7.544551 11.187303 7.345440 -2.378884 -3.038885 3.246052 -4.209012 0.377289 -9.053885 0.380511 -9.869656 -4.012434 6.056829 3.020372 -10.123139 -5.254229 -0.329485 8.242427 
-1.620910 49.750408 -0.350867 0.868042 -0.273300 -1.816432 0.000000 0.000000 0.000000 -1.708385 0.292968 0.117236 3.401802 1.132736 0.664319 4.565559 -0.498024 0.546854 -8.655201 -4.007694 -1.267931 -49.350735 -0.535404 -34.617809 -15.861179 2.361433 14.041448 -20.473886 9.693331 -4.730953 10.108866 9.288745 -1.795445 38.309597 -3.764624 -35.448349 0.683302 -0.695295 2.343773 -9.994907 -2.912820 -3.609031 7.622166 11.400911 7.476209 -2.362602 -2.915653 2.927641 -4.220422 0.437253 -9.346574 0.009229 -9.642065 -3.853100 6.698194 3.074926 -10.244851 -5.473733 -0.346097 7.996248 
